<svg id="Layer_5" enable-background="new 0 0 64 64" height="512" viewBox="0 0 64 64" width="512" xmlns="http://www.w3.org/2000/svg"><g><g><g><path d="m32 10h-13c-.55 0-1 .45-1 1v7c0-2.96-1.61-5.55-4-6.93v-5.07c0-2.21 1.79-4 4-4h10v4c0 2.21 1.79 4 4 4z" fill="#969faa"/></g><g><path d="m50 6v10h-4v-5c0-.55-.45-1-1-1h-13c1.1 0 2.1-.45 2.83-1.17.72-.73 1.17-1.73 1.17-2.83v-4h10c2.21 0 4 1.79 4 4z" fill="#969faa"/></g><g><path d="m18 18v27c0 .55.45 1 1 1h26c.55 0 1-.45 1-1v-9h4v18c0 2.21-1.79 4-4 4h-28c-2.21 0-4-1.79-4-4v-1-21-3.9c0-.03 0-.07.01-.1.02-1.48.63-2.88 1.63-3.99 1.3-1.46 2.36-3.61 2.36-6.01z" fill="#969faa"/></g><g><path d="m6 32h4v21h-4z" fill="#ff826e"/></g><g><path d="m10 32h4v21h-4z" fill="#b4dd7f"/></g><g><path d="m14 28h.01c-.01.03-.01.07-.01.1v3.9h-4-4v-3.86c0-.05 0-.09-.01-.14h.01 4z" fill="#aab2bd"/></g><g><path d="m11.32 61.05c-.19.57-.72.95-1.32.95s-1.13-.38-1.32-.95l-2.68-8.05h4 4z" fill="#aab2bd"/></g><g><path d="m10 28h-4-.01c-.03-1.43-.57-2.81-1.55-3.86-1.71-1.82-2.95-4.78-2.24-7.96.73-3.28 3.56-5.76 6.89-6.13 1.8-.2 3.49.2 4.91 1.02 2.39 1.38 4 3.97 4 6.93 0 2.4-1.06 4.55-2.36 6.01-1 1.11-1.61 2.51-1.63 3.99h-.01z" fill="#ffeaa7"/></g><g><circle cx="10" cy="18" fill="#fcd770" r="2"/></g><g><path d="m32 10c-2.21 0-4-1.79-4-4v-4h8v4c0 1.1-.45 2.1-1.17 2.83-.73.72-1.73 1.17-2.83 1.17z" fill="#fcd770"/></g><g><path d="m19 10h13 13c.55 0 1 .45 1 1v5h-6c-1.1 0-2 .9-2 2v16c0 1.1.9 2 2 2h6v9c0 .55-.45 1-1 1h-26c-.55 0-1-.45-1-1v-27-7c0-.55.45-1 1-1z" fill="#69d6f4"/></g><g><path d="m50 36h-4-6c-1.1 0-2-.9-2-2v-16c0-1.1.9-2 2-2h6 4 10c1.1 0 2 .9 2 2v16c0 1.1-.9 2-2 2z" fill="#e6e9ed"/></g><g><path d="m46 51v2c0 .55-.45 1-1 1h-2c-.55 0-1-.45-1-1v-2c0-.55.45-1 1-1h2c.55 0 1 .45 1 1z" fill="#e6e9ed"/></g><g><path d="m36 51v2c0 .55-.45 1-1 1h-6c-.55 0-1-.45-1-1v-2c0-.55.45-1 1-1h6c.55 0 1 .45 1 1z" fill="#e6e9ed"/></g><g><path d="m22 51v2c0 .55-.45 1-1 1h-2c-.55 0-1-.45-1-1v-2c0-.55.45-1 1-1h2c.55 0 1 .45 1 1z" fill="#e6e9ed"/></g><g><path d="m33.11 35.55c.54.28.89.84.89 1.45s-.35 1.17-.89 1.45l-6.77 3.38c-.22.11-.47.17-.72.17-.9 0-1.62-.72-1.62-1.62v-6.76c0-.9.72-1.62 1.62-1.62.25 0 .5.06.72.17z" fill="#ff826e"/></g></g><g><path d="m35 49h-6c-1.103 0-2 .897-2 2v2c0 1.103.897 2 2 2h6c1.103 0 2-.897 2-2v-2c0-1.103-.897-2-2-2zm-6 4v-2h6l.001 2z"/><path d="m21 49h-2c-1.103 0-2 .897-2 2v2c0 1.103.897 2 2 2h2c1.103 0 2-.897 2-2v-2c0-1.103-.897-2-2-2zm-2 4v-2h2l.001 2z"/><path d="m45 49h-2c-1.103 0-2 .897-2 2v2c0 1.103.897 2 2 2h2c1.103 0 2-.897 2-2v-2c0-1.103-.897-2-2-2zm-2 4v-2h2l.001 2z"/><circle cx="32" cy="6" r="1"/><path d="m60 15h-9v-9c0-2.757-2.243-5-5-5h-28c-2.757 0-5 2.243-5 5v3.53c-1.272-.449-2.642-.623-4.017-.474-3.756.413-6.946 3.252-7.757 6.902-.823 3.701.742 7.006 2.48 8.864.835.891 1.294 2.071 1.294 3.32v25.021l2.735 8.206c.326.976 1.236 1.631 2.265 1.631s1.939-.655 2.265-1.632l1.549-4.649c.893 1.37 2.433 2.281 4.186 2.281h28c2.757 0 5-2.243 5-5v-17h9c1.654 0 3-1.346 3-3v-16c0-1.654-1.346-3-3-3zm-11-9v9h-2v-4c0-1.103-.897-2-2-2h-9.026c.635-.838 1.026-1.87 1.026-3v-3h9c1.654 0 3 1.346 3 3zm-9 31h5v8h-26v-34h26v4h-5c-1.654 0-3 1.346-3 3v16c0 1.654 1.346 3 3 3zm-11-31v-3h6v3c0 1.654-1.346 3-3 3s-3-1.346-3-3zm-14 0c0-1.654 1.346-3 3-3h9v3c0 1.13.391 2.162 1.026 3h-9.026c-1.103 0-2 .897-2 2v1.364c-.304-.378-.63-.74-.996-1.068-.316-.283-.655-.532-1.004-.765zm-11.822 10.392c.629-2.827 3.106-5.026 6.024-5.348 2.026-.227 3.966.396 5.467 1.741 1.481 1.327 2.331 3.228 2.331 5.215 0 1.895-.769 3.844-2.109 5.346-.955 1.07-1.568 2.339-1.791 3.654h-2.1v-6.184c1.161-.414 2-1.514 2-2.816 0-1.654-1.346-3-3-3s-3 1.346-3 3c0 1.302.839 2.402 2 2.816v6.184h-2.098c-.219-1.328-.812-2.559-1.735-3.545-1.39-1.485-2.643-4.121-1.989-7.063zm3.822 12.608h6v2h-6zm2-11c0-.552.449-1 1-1s1 .448 1 1-.449 1-1 1-1-.448-1-1zm-2 15h2v19h-2zm4 0h2v19h-2zm-.632 27.735c-.105.316-.63.316-.735 0l-2.246-6.735h5.225zm38.632-6.735c0 1.654-1.346 3-3 3h-28c-1.654 0-3-1.346-3-3v-.838-.162-24.897c0-1.209.491-2.425 1.383-3.425.219-.245.423-.501.617-.764v21.086c0 1.103.897 2 2 2h26c1.103 0 2-.897 2-2v-8h2zm12-20c0 .552-.449 1-1 1h-20c-.551 0-1-.448-1-1v-16c0-.552.449-1 1-1h20c.551 0 1 .448 1 1z"/><path d="m50 19c-2.206 0-4 1.794-4 4h2c0-1.103.897-2 2-2s2 .897 2 2v.395c0 .67-.333 1.292-.891 1.664l-2.109 1.406v2.535h2v-1.465l1.219-.813c1.115-.743 1.781-1.988 1.781-3.327v-.395c0-2.206-1.794-4-4-4z"/><circle cx="50" cy="32" r="1"/><path d="m33.553 34.658-6.764-3.382c-.362-.18-.767-.276-1.171-.276-1.444 0-2.618 1.175-2.618 2.618v6.764c0 1.443 1.174 2.618 2.618 2.618.404 0 .809-.096 1.171-.276l6.764-3.382c.892-.447 1.447-1.344 1.447-2.342s-.555-1.895-1.447-2.342zm-.895 2.895-6.764 3.382c-.391.196-.894-.118-.894-.553v-6.764c0-.341.277-.618.618-.618.095 0 .191.022.276.065l6.763 3.382c.212.106.343.318.343.553s-.131.447-.342.553z"/><path d="m23 27h2v-2h2v-2h-2v-10h-2v10h-2v2h2z"/><path d="m33 13h-2v6h-2v2h2v6h2v-6h2v-2h-2z"/></g></g></svg>