<svg height="512" viewBox="0 0 64 64" width="512" xmlns="http://www.w3.org/2000/svg"><g id="Layer_22" data-name="Layer 22"><rect fill="#c7e2fb" height="38" rx="4" width="50" x="2" y="10"/><path d="m6 10a4 4 0 0 0 -4 4v21.28a39.33 39.33 0 0 0 7.5.72c17.33 0 31.75-11.2 34.87-26z" fill="#ebf7fe"/><rect fill="#c1c8d1" height="34" rx="4" width="46" x="16" y="2"/><path d="m58 2h-38a4 4 0 0 0 -4 4v2h46v-2a4 4 0 0 0 -4-4z" fill="#f7d881"/><path d="m20 12h38v20h-38z" fill="#fff"/><path d="m39 23h4v9h-4z" fill="#cda57d"/><path d="m2 44a4 4 0 0 0 4 4h42a4 4 0 0 0 4-4v-4h-50z" fill="#a0a8b2"/><path d="m21 48h12v8h-12z" fill="#88929f"/><path d="m18 56h18a4 4 0 0 1 4 4v2a0 0 0 0 1 0 0h-26a0 0 0 0 1 0 0v-2a4 4 0 0 1 4-4z" fill="#a0a8b2"/><g fill="#fff"><path d="m47 43h2v2h-2z"/><path d="m43 43h2v2h-2z"/><path d="m39 43h2v2h-2z"/></g><path d="m26 16h8v16h-8z" fill="#cda57d"/><path d="m26 19h3v2h-3z" fill="#c18e5c"/><path d="m26 23h3v2h-3z" fill="#c18e5c"/><path d="m26 27h5v2h-5z" fill="#c18e5c"/><path d="m39.45 23.72a2.61 2.61 0 0 1 -1.45-2.34 2.23 2.23 0 0 1 1.24-2 1.38 1.38 0 0 0 .76-1.23v-2.15l3 3a3.34 3.34 0 0 1 1 2.36 2.61 2.61 0 0 1 -1.45 2.34 2.49 2.49 0 0 1 -1.17.28h-.76a2.49 2.49 0 0 1 -1.17-.26z" fill="#c1c8d1"/><path d="m48 32v-10l2-6 2 6v10z" fill="#cda57d"/><path d="m48 22h4l-2-6z" fill="#fddfb1"/></g></svg>