<svg id="Capa_1" enable-background="new 0 0 512 512" height="512" viewBox="0 0 512 512" width="512" xmlns="http://www.w3.org/2000/svg"><g><g><path d="m225.066 392.266v104.734h30.934l20-52.367-20-52.367z" fill="#b9c3cd"/><path d="m256 392.266h30.934v104.734h-30.934z" fill="#909ba6"/></g><g><path d="m256 512h-124.766v-30h124.766l20 15z" fill="#dce6eb"/></g><g><path d="m0 80.943v273.247l256 20 30-104.936-30-188.311z" fill="#07485e"/><path d="m512 80.943h-256v293.247l256-20z" fill="#04303e"/></g><g><path d="m0 354.19v61.867h256l20-30.934-20-30.933z" fill="#dce6eb"/><path d="m256 354.19h256v61.867h-256z" fill="#b9c3cd"/></g><g><path d="m256 482h124.766v30h-124.766z" fill="#b9c3cd"/></g><g><g><g><path d="m65.423 0v193.396l190.577 24.811 20-118.622-20-99.585z" fill="#d4ecfd"/><path d="m256 0v218.207l190.577-95.189v-123.018z" fill="#9cd2fc"/></g><circle cx="160.185" cy="94.762" fill="#ffa07b" r="38.262"/></g></g><g><path d="m446.577 123.018h-155.388c-19.435 0-35.189 15.755-35.189 35.189v140.293h190.577z" fill="#00a98f"/><path d="m220.811 193.396h-155.388v105.104h190.577v-140.293c0 19.435-15.755 35.189-35.189 35.189z" fill="#00dc80"/></g></g></svg>