<svg id="flat" height="512" viewBox="0 0 512 512" width="512" xmlns="http://www.w3.org/2000/svg"><rect fill="#639aff" height="352" rx="16" width="464" x="24" y="80"/><path d="m40 80h432a16 16 0 0 1 16 16v32a0 0 0 0 1 0 0h-464a0 0 0 0 1 0 0v-32a16 16 0 0 1 16-16z" fill="#7dafff"/><path d="m128 128h264v160h-264z" fill="#486be0"/><path d="m160 248h16v16h-16z" fill="#548aff"/><path d="m160 216h32v16h-32z" fill="#548aff"/><path d="m208 216h24v16h-24z" fill="#548aff"/><path d="m160 184h56v16h-56z" fill="#548aff"/><path d="m160 152h16v16h-16z" fill="#548aff"/><path d="m192 152h104v16h-104z" fill="#548aff"/><path d="m232 256 64-96 64 96z" fill="#ffc431"/><circle cx="48" cy="104" fill="#f5714f" r="8"/><circle cx="72" cy="104" fill="#ffc431" r="8"/><circle cx="96" cy="104" fill="#08d175" r="8"/><path d="m208 320h88v16h-88z" fill="#ffc431"/><path d="m256 352h144v16h-144z" fill="#08d175"/><path d="m224 384h64v16h-64z" fill="#f5714f"/><path d="m304 384h136v16h-136z" fill="#f5714f"/><g fill="#548aff"><path d="m48 152h56v16h-56z"/><path d="m48 184h40v16h-40z"/><path d="m48 216h56v16h-56z"/><path d="m48 248h40v16h-40z"/><path d="m488 280h-464v16h40v32h-40v16h40v32h-40v16h40v40h16v-136h96v136h16v-136h296z"/><path d="m96 320h16v16h-16z"/><path d="m128 320h32v16h-32z"/><path d="m96 352h32v16h-32z"/><path d="m144 352h16v16h-16z"/><path d="m96 384h16v16h-16z"/><path d="m128 384h32v16h-32z"/><path d="m432 208h56v32h-56z"/><path d="m432 128h56v32h-56z"/></g><path d="m232 200h56v56h-56z" fill="#ffa100"/><path d="m192 248h168v16h-168z" fill="#548aff"/><path d="m392 200h96v16h-96z" fill="#548aff"/></svg>